<svg width="40" height="40" viewBox="0 0 40 40" fill="none" xmlns="http://www.w3.org/2000/svg">
<path d="M29.4696 23.7123C29.0552 24.1139 28.8648 24.6947 28.9592 25.2643L30.3816 33.1363C30.5016 33.8035 30.22 34.4787 29.6616 34.8643C29.1144 35.2643 28.3864 35.3123 27.7896 34.9923L20.7032 31.2963C20.4568 31.1651 20.1832 31.0947 19.9032 31.0867H19.4696C19.3192 31.1091 19.172 31.1571 19.0376 31.2307L11.9496 34.9443C11.5992 35.1203 11.2024 35.1827 10.8136 35.1203C9.86639 34.9411 9.23439 34.0387 9.38959 33.0867L10.8136 25.2147C10.908 24.6403 10.7176 24.0563 10.3032 23.6483L4.52559 18.0483C4.04239 17.5795 3.87439 16.8755 4.09519 16.2403C4.30959 15.6067 4.85679 15.1443 5.51759 15.0403L13.4696 13.8867C14.0744 13.8243 14.6056 13.4563 14.8776 12.9123L18.3816 5.72829C18.4648 5.56829 18.572 5.42109 18.7016 5.29629L18.8456 5.18429C18.9208 5.10109 19.0072 5.03229 19.1032 4.97629L19.2776 4.91229L19.5496 4.80029H20.2232C20.8248 4.86269 21.3544 5.22269 21.6312 5.76029L25.1816 12.9123C25.4376 13.4355 25.9352 13.7987 26.5096 13.8867L34.4616 15.0403C35.1336 15.1363 35.6952 15.6003 35.9176 16.2403C36.1272 16.8819 35.9464 17.5859 35.4536 18.0483L29.4696 23.7123Z" fill="#00F6FF"/>
</svg>
